<svg xmlns="http://www.w3.org/2000/svg" width="60" height="63" viewBox="0 0 60 63">
  <g id="Vector_Smart_Object" data-name="Vector Smart Object" transform="translate(-167.193 -158.14)">
    <g id="Group_177" data-name="Group 177">
      <g id="Group_24" data-name="Group 24">
        <g id="Group_3" data-name="Group 3">
          <g id="Group_1" data-name="Group 1">
            <path id="Path_1" data-name="Path 1" d="M196.115,190.31a18.094,18.094,0,0,1-5.065-.734,14.525,14.525,0,0,1-5.146-2.69,14.134,14.134,0,0,1-4.159-5.874,16.492,16.492,0,0,1-.914-5.131,42.427,42.427,0,0,1,.164-5.6,64.528,64.528,0,0,1,.9-6.411.621.621,0,1,1,1.217.253c-.023.111-2.251,11.2-.211,16.43a12.9,12.9,0,0,0,3.789,5.363,13.3,13.3,0,0,0,4.71,2.458,16.311,16.311,0,0,0,5.726.642.626.626,0,0,1,.132,1.245C197.215,190.267,196.8,190.31,196.115,190.31Z" fill="#fcf8f0"/>
          </g>
          <g id="Group_2" data-name="Group 2">
            <path id="Path_2" data-name="Path 2" d="M197.192,190.266a.615.615,0,0,1-.366-.12.629.629,0,0,1-.136-.874,16.733,16.733,0,0,0,2.322-5.361,13.515,13.515,0,0,0,.229-5.324,12.952,12.952,0,0,0-2.709-5.963c-3.478-4.4-14.117-8-14.224-8.031a.627.627,0,0,1-.394-.791.62.62,0,0,1,.785-.4,63.268,63.268,0,0,1,5.96,2.42,41.691,41.691,0,0,1,4.892,2.656,16.29,16.29,0,0,1,3.952,3.363,14.187,14.187,0,0,1,2.968,6.567,14.789,14.789,0,0,1-.261,5.836,17.681,17.681,0,0,1-2.515,5.763A.619.619,0,0,1,197.192,190.266Z" fill="#fcf8f0"/>
          </g>
        </g>
        <g id="Group_13" data-name="Group 13">
          <g id="Group_6" data-name="Group 6">
            <g id="Group_5" data-name="Group 5">
              <g id="Group_4" data-name="Group 4">
                <path id="Path_3" data-name="Path 3" d="M191.252,179.572a.3.3,0,0,1-.261-.152c-.179-.312-1.958-3.014-9.346-1.962a.3.3,0,0,1-.084-.6c7.618-1.085,9.626,1.692,9.952,2.259a.3.3,0,0,1-.11.415A.3.3,0,0,1,191.252,179.572Z" fill="#fcf8f0"/>
              </g>
            </g>
          </g>
          <g id="Group_9" data-name="Group 9">
            <g id="Group_8" data-name="Group 8">
              <g id="Group_7" data-name="Group 7">
                <path id="Path_4" data-name="Path 4" d="M188.132,174.127a.3.3,0,0,1-.261-.152c-.1-.171-1.111-1.645-6.388-.636a.3.3,0,0,1-.112-.6,12.278,12.278,0,0,1,5.423-.1,2.54,2.54,0,0,1,1.6,1.033.3.3,0,0,1-.11.415A.3.3,0,0,1,188.132,174.127Z" fill="#fcf8f0"/>
              </g>
            </g>
          </g>
          <g id="Group_12" data-name="Group 12">
            <g id="Group_11" data-name="Group 11">
              <g id="Group_10" data-name="Group 10">
                <path id="Path_5" data-name="Path 5" d="M185.374,169.313a.3.3,0,0,1-.261-.152c0-.007-.443-.711-3.29-.2a.3.3,0,0,1-.105-.6c2.974-.533,3.73.169,3.917.5a.3.3,0,0,1-.11.415A.3.3,0,0,1,185.374,169.313Z" fill="#fcf8f0"/>
              </g>
            </g>
          </g>
        </g>
        <g id="Group_23" data-name="Group 23">
          <g id="Group_16" data-name="Group 16">
            <g id="Group_15" data-name="Group 15">
              <g id="Group_14" data-name="Group 14">
                <path id="Path_6" data-name="Path 6" d="M191.252,179.572a.3.3,0,0,1-.261-.152c-.325-.568-1.707-3.709,3.034-9.815a.3.3,0,0,1,.423-.052.305.305,0,0,1,.052.426c-4.6,5.922-3.166,8.826-2.987,9.138a.3.3,0,0,1-.11.415A.3.3,0,0,1,191.252,179.572Z" fill="#fcf8f0"/>
              </g>
            </g>
          </g>
          <g id="Group_19" data-name="Group 19">
            <g id="Group_18" data-name="Group 18">
              <g id="Group_17" data-name="Group 17">
                <path id="Path_7" data-name="Path 7" d="M188.132,174.127a.3.3,0,0,1-.261-.152,2.577,2.577,0,0,1-.088-1.912,12.487,12.487,0,0,1,2.8-4.681.3.3,0,0,1,.425-.032.305.305,0,0,1,.032.428c-3.506,4.1-2.746,5.722-2.648,5.893a.3.3,0,0,1-.11.415A.3.3,0,0,1,188.132,174.127Z" fill="#fcf8f0"/>
              </g>
            </g>
          </g>
          <g id="Group_22" data-name="Group 22">
            <g id="Group_21" data-name="Group 21">
              <g id="Group_20" data-name="Group 20">
                <path id="Path_8" data-name="Path 8" d="M185.374,169.313a.3.3,0,0,1-.261-.152c-.187-.326-.412-1.337,1.533-3.666a.3.3,0,0,1,.424-.037.305.305,0,0,1,.037.428c-1.861,2.229-1.476,2.965-1.472,2.972a.3.3,0,0,1-.11.415A.3.3,0,0,1,185.374,169.313Z" fill="#fcf8f0"/>
              </g>
            </g>
          </g>
        </g>
        <path id="Path_9" data-name="Path 9" d="M197.193,189.944a.3.3,0,0,1-.261-.152l-14.689-25.641a.3.3,0,0,1,.11-.415.3.3,0,0,1,.411.111l14.689,25.641a.3.3,0,0,1-.11.415A.3.3,0,0,1,197.193,189.944Z" fill="#fcf8f0"/>
      </g>
      <g id="Group_48" data-name="Group 48">
        <g id="Group_27" data-name="Group 27">
          <g id="Group_25" data-name="Group 25">
            <path id="Path_10" data-name="Path 10" d="M184.369,198.988a15.433,15.433,0,0,1-2.314-.178c-2.488-.377-5.716-1.962-9.595-4.71a63.655,63.655,0,0,1-5.059-3.992.629.629,0,0,1-.051-.884.618.618,0,0,1,.877-.052c.084.076,8.495,7.563,14.013,8.4a12.713,12.713,0,0,0,6.479-.617,13.3,13.3,0,0,0,4.46-2.861,16.672,16.672,0,0,0,3.446-4.707.62.62,0,0,1,.82-.318.628.628,0,0,1,.316.825,17.621,17.621,0,0,1-3.694,5.076,14.551,14.551,0,0,1-4.884,3.146A13.434,13.434,0,0,1,184.369,198.988Z" fill="#fcf8f0"/>
          </g>
          <g id="Group_26" data-name="Group 26">
            <path id="Path_11" data-name="Path 11" d="M197.193,190.266a.621.621,0,0,1-.568-.372,16.676,16.676,0,0,0-3.446-4.707,13.3,13.3,0,0,0-4.46-2.861,12.712,12.712,0,0,0-6.479-.617c-5.522.837-13.929,8.323-14.013,8.4a.618.618,0,0,1-.877-.052.629.629,0,0,1,.051-.884,63.647,63.647,0,0,1,5.059-3.992c3.878-2.748,7.106-4.333,9.595-4.71a13.925,13.925,0,0,1,7.127.693,14.55,14.55,0,0,1,4.884,3.146,17.621,17.621,0,0,1,3.694,5.076.628.628,0,0,1-.316.826A.615.615,0,0,1,197.193,190.266Z" fill="#fcf8f0"/>
          </g>
        </g>
        <g id="Group_37" data-name="Group 37">
          <g id="Group_30" data-name="Group 30">
            <g id="Group_29" data-name="Group 29">
              <g id="Group_28" data-name="Group 28">
                <path id="Path_12" data-name="Path 12" d="M178.672,197.31a.3.3,0,0,1-.112-.022.3.3,0,0,1-.167-.4c2.877-7.192,6.267-7.556,6.917-7.556a.3.3,0,0,1,0,.607c-.357,0-3.569.2-6.359,7.176A.3.3,0,0,1,178.672,197.31Z" fill="#fcf8f0"/>
              </g>
            </g>
          </g>
          <g id="Group_33" data-name="Group 33">
            <g id="Group_32" data-name="Group 32">
              <g id="Group_31" data-name="Group 31">
                <path id="Path_13" data-name="Path 13" d="M175.045,195.4a.3.3,0,0,1-.1-.017.3.3,0,0,1-.185-.387,12.491,12.491,0,0,1,2.622-4.785,2.531,2.531,0,0,1,1.687-.879.3.3,0,0,1,0,.607c-.2,0-1.97.148-3.741,5.258A.3.3,0,0,1,175.045,195.4Z" fill="#fcf8f0"/>
              </g>
            </g>
          </g>
          <g id="Group_36" data-name="Group 36">
            <g id="Group_35" data-name="Group 35">
              <g id="Group_34" data-name="Group 34">
                <path id="Path_14" data-name="Path 14" d="M171.454,192.915a.3.3,0,0,1-.1-.018.3.3,0,0,1-.181-.389c1.029-2.862,2.01-3.171,2.384-3.171a.3.3,0,0,1,0,.607c-.008,0-.833.032-1.818,2.771A.3.3,0,0,1,171.454,192.915Z" fill="#fcf8f0"/>
              </g>
            </g>
          </g>
        </g>
        <g id="Group_47" data-name="Group 47">
          <g id="Group_40" data-name="Group 40">
            <g id="Group_39" data-name="Group 39">
              <g id="Group_38" data-name="Group 38">
                <path id="Path_15" data-name="Path 15" d="M185.31,189.944c-.65,0-4.041-.364-6.917-7.556a.3.3,0,0,1,.167-.4.3.3,0,0,1,.392.168c2.79,6.975,6,7.176,6.359,7.176a.3.3,0,0,1,0,.607Z" fill="#fcf8f0"/>
              </g>
            </g>
          </g>
          <g id="Group_43" data-name="Group 43">
            <g id="Group_42" data-name="Group 42">
              <g id="Group_41" data-name="Group 41">
                <path id="Path_16" data-name="Path 16" d="M179.07,189.944a2.531,2.531,0,0,1-1.687-.879,12.49,12.49,0,0,1-2.622-4.785.3.3,0,0,1,.185-.387.3.3,0,0,1,.384.186c1.771,5.11,3.544,5.258,3.741,5.258a.3.3,0,0,1,0,.607Z" fill="#fcf8f0"/>
              </g>
            </g>
          </g>
          <g id="Group_46" data-name="Group 46">
            <g id="Group_45" data-name="Group 45">
              <g id="Group_44" data-name="Group 44">
                <path id="Path_17" data-name="Path 17" d="M173.555,189.944c-.374,0-1.355-.309-2.384-3.171a.3.3,0,0,1,.181-.389.3.3,0,0,1,.386.182c.985,2.739,1.81,2.771,1.818,2.771a.3.3,0,0,1,0,.607Z" fill="#fcf8f0"/>
              </g>
            </g>
          </g>
        </g>
        <path id="Path_18" data-name="Path 18" d="M197.193,189.944H167.814a.3.3,0,0,1,0-.607h29.379a.3.3,0,0,1,0,.607Z" fill="#fcf8f0"/>
      </g>
      <g id="Group_72" data-name="Group 72">
        <g id="Group_51" data-name="Group 51">
          <g id="Group_49" data-name="Group 49">
            <path id="Path_19" data-name="Path 19" d="M182.5,215.585a.3.3,0,0,1-.095-.592c.108-.036,10.836-3.663,14.373-8.136a13.269,13.269,0,0,0,2.777-6.125,13.848,13.848,0,0,0-.241-5.46,17.041,17.041,0,0,0-2.369-5.454.305.305,0,0,1,.066-.424.3.3,0,0,1,.421.066,17.321,17.321,0,0,1,2.463,5.648,14.468,14.468,0,0,1,.257,5.708,13.869,13.869,0,0,1-2.9,6.418c-1.537,1.944-4.474,3.938-8.729,5.928a62.919,62.919,0,0,1-5.926,2.406A.3.3,0,0,1,182.5,215.585Z" fill="#fcf8f0"/>
          </g>
          <g id="Group_50" data-name="Group 50">
            <path id="Path_20" data-name="Path 20" d="M182.5,215.908a.623.623,0,0,1-.608-.5,64.526,64.526,0,0,1-.9-6.411,42.428,42.428,0,0,1-.164-5.6,16.493,16.493,0,0,1,.914-5.131,14.133,14.133,0,0,1,4.159-5.874,14.526,14.526,0,0,1,5.146-2.69,17.354,17.354,0,0,1,6.209-.686.626.626,0,0,1-.132,1.245,16.42,16.42,0,0,0-5.768.654,13.275,13.275,0,0,0-4.689,2.462,12.9,12.9,0,0,0-3.769,5.346c-2.04,5.234.188,16.318.211,16.43a.626.626,0,0,1-.483.739A.617.617,0,0,1,182.5,215.908Z" fill="#fcf8f0"/>
          </g>
        </g>
        <g id="Group_61" data-name="Group 61">
          <g id="Group_54" data-name="Group 54">
            <g id="Group_53" data-name="Group 53">
              <g id="Group_52" data-name="Group 52">
                <path id="Path_21" data-name="Path 21" d="M194.262,209.792a.3.3,0,0,1-.237-.117c-4.742-6.107-3.36-9.248-3.034-9.815a.3.3,0,0,1,.411-.111.3.3,0,0,1,.11.415c-.179.312-1.611,3.216,2.987,9.138a.305.305,0,0,1-.052.426A.3.3,0,0,1,194.262,209.792Z" fill="#fcf8f0"/>
              </g>
            </g>
          </g>
          <g id="Group_57" data-name="Group 57">
            <g id="Group_56" data-name="Group 56">
              <g id="Group_55" data-name="Group 55">
                <path id="Path_22" data-name="Path 22" d="M190.812,212a.3.3,0,0,1-.228-.105,12.486,12.486,0,0,1-2.8-4.681,2.577,2.577,0,0,1,.088-1.912.3.3,0,0,1,.411-.111.3.3,0,0,1,.11.415c-.1.171-.858,1.793,2.648,5.894a.305.305,0,0,1-.032.428A.3.3,0,0,1,190.812,212Z" fill="#fcf8f0"/>
              </g>
            </g>
          </g>
          <g id="Group_60" data-name="Group 60">
            <g id="Group_59" data-name="Group 59">
              <g id="Group_58" data-name="Group 58">
                <path id="Path_23" data-name="Path 23" d="M186.877,213.894a.3.3,0,0,1-.231-.108c-1.945-2.329-1.72-3.34-1.533-3.666a.3.3,0,0,1,.411-.111.3.3,0,0,1,.11.415c0,.007-.389.743,1.472,2.972a.305.305,0,0,1-.037.428A.3.3,0,0,1,186.877,213.894Z" fill="#fcf8f0"/>
              </g>
            </g>
          </g>
        </g>
        <g id="Group_71" data-name="Group 71">
          <g id="Group_64" data-name="Group 64">
            <g id="Group_63" data-name="Group 63">
              <g id="Group_62" data-name="Group 62">
                <path id="Path_24" data-name="Path 24" d="M184.817,202.672a23.152,23.152,0,0,1-3.257-.249.3.3,0,0,1,.084-.6c7.388,1.052,9.167-1.65,9.346-1.962a.3.3,0,0,1,.411-.111.3.3,0,0,1,.11.415C191.239,200.64,189.781,202.672,184.817,202.672Z" fill="#fcf8f0"/>
              </g>
            </g>
          </g>
          <g id="Group_67" data-name="Group 67">
            <g id="Group_66" data-name="Group 66">
              <g id="Group_65" data-name="Group 65">
                <path id="Path_25" data-name="Path 25" d="M184.691,206.9a17.942,17.942,0,0,1-3.321-.359.3.3,0,0,1,.112-.6c5.277,1.009,6.29-.465,6.388-.636a.3.3,0,0,1,.411-.111.3.3,0,0,1,.11.415,2.54,2.54,0,0,1-1.6,1.033A7.679,7.679,0,0,1,184.691,206.9Z" fill="#fcf8f0"/>
              </g>
            </g>
          </g>
          <g id="Group_70" data-name="Group 70">
            <g id="Group_69" data-name="Group 69">
              <g id="Group_68" data-name="Group 68">
                <path id="Path_26" data-name="Path 26" d="M183.616,211.112a10.891,10.891,0,0,1-1.9-.193.3.3,0,0,1,.105-.6c2.847.51,3.286-.194,3.29-.2a.3.3,0,0,1,.411-.111.3.3,0,0,1,.11.415C185.5,210.664,185.046,211.112,183.616,211.112Z" fill="#fcf8f0"/>
              </g>
            </g>
          </g>
        </g>
        <path id="Path_27" data-name="Path 27" d="M182.5,215.585a.3.3,0,0,1-.15-.041.3.3,0,0,1-.11-.415l14.689-25.641a.3.3,0,0,1,.411-.111.3.3,0,0,1,.11.415l-14.689,25.641A.3.3,0,0,1,182.5,215.585Z" fill="#fcf8f0"/>
      </g>
      <g id="Group_96" data-name="Group 96">
        <g id="Group_75" data-name="Group 75">
          <g id="Group_73" data-name="Group 73">
            <path id="Path_28" data-name="Path 28" d="M211.883,215.908a.617.617,0,0,1-.126-.013.626.626,0,0,1-.483-.739c.023-.111,2.251-11.2.211-16.43a12.9,12.9,0,0,0-3.769-5.346,13.274,13.274,0,0,0-4.689-2.462,16.421,16.421,0,0,0-5.768-.654.626.626,0,0,1-.131-1.245,17.353,17.353,0,0,1,6.209.686,14.527,14.527,0,0,1,5.146,2.69,14.134,14.134,0,0,1,4.159,5.874,16.493,16.493,0,0,1,.914,5.131,42.428,42.428,0,0,1-.164,5.6,64.532,64.532,0,0,1-.9,6.411A.623.623,0,0,1,211.883,215.908Z" fill="#fcf8f0"/>
          </g>
          <g id="Group_74" data-name="Group 74">
            <path id="Path_29" data-name="Path 29" d="M211.882,215.908a.615.615,0,0,1-.2-.032,63.279,63.279,0,0,1-5.96-2.42,41.69,41.69,0,0,1-4.892-2.656,16.287,16.287,0,0,1-3.952-3.363,14.188,14.188,0,0,1-2.968-6.567,14.789,14.789,0,0,1,.261-5.836,17.681,17.681,0,0,1,2.515-5.763.618.618,0,0,1,.868-.137.629.629,0,0,1,.136.875,16.739,16.739,0,0,0-2.321,5.361,13.516,13.516,0,0,0-.229,5.324,12.952,12.952,0,0,0,2.709,5.963c3.478,4.4,14.117,8,14.224,8.031a.627.627,0,0,1-.2,1.22Z" fill="#fcf8f0"/>
          </g>
        </g>
        <g id="Group_85" data-name="Group 85">
          <g id="Group_78" data-name="Group 78">
            <g id="Group_77" data-name="Group 77">
              <g id="Group_76" data-name="Group 76">
                <path id="Path_30" data-name="Path 30" d="M209.569,202.672c-4.965,0-6.422-2.032-6.7-2.508a.3.3,0,0,1,.11-.415.3.3,0,0,1,.411.111c.179.312,1.957,3.014,9.346,1.962a.3.3,0,0,1,.084.6A23.156,23.156,0,0,1,209.569,202.672Z" fill="#fcf8f0"/>
              </g>
            </g>
          </g>
          <g id="Group_81" data-name="Group 81">
            <g id="Group_80" data-name="Group 80">
              <g id="Group_79" data-name="Group 79">
                <path id="Path_31" data-name="Path 31" d="M209.695,206.9a7.679,7.679,0,0,1-2.1-.255,2.54,2.54,0,0,1-1.6-1.033.3.3,0,0,1,.11-.415.3.3,0,0,1,.411.111c.1.171,1.112,1.645,6.388.636a.3.3,0,0,1,.112.6A17.941,17.941,0,0,1,209.695,206.9Z" fill="#fcf8f0"/>
              </g>
            </g>
          </g>
          <g id="Group_84" data-name="Group 84">
            <g id="Group_83" data-name="Group 83">
              <g id="Group_82" data-name="Group 82">
                <path id="Path_32" data-name="Path 32" d="M210.77,211.112c-1.431,0-1.881-.447-2.019-.689a.3.3,0,0,1,.11-.415.3.3,0,0,1,.411.111c0,.007.444.711,3.29.2a.3.3,0,0,1,.105.6A10.89,10.89,0,0,1,210.77,211.112Z" fill="#fcf8f0"/>
              </g>
            </g>
          </g>
        </g>
        <g id="Group_95" data-name="Group 95">
          <g id="Group_88" data-name="Group 88">
            <g id="Group_87" data-name="Group 87">
              <g id="Group_86" data-name="Group 86">
                <path id="Path_33" data-name="Path 33" d="M200.123,209.792a.3.3,0,0,1-.185-.064.305.305,0,0,1-.052-.426c4.6-5.922,3.166-8.826,2.987-9.138a.3.3,0,0,1,.11-.415.3.3,0,0,1,.411.111c.325.568,1.707,3.709-3.034,9.815A.3.3,0,0,1,200.123,209.792Z" fill="#fcf8f0"/>
              </g>
            </g>
          </g>
          <g id="Group_91" data-name="Group 91">
            <g id="Group_90" data-name="Group 90">
              <g id="Group_89" data-name="Group 89">
                <path id="Path_34" data-name="Path 34" d="M203.574,212a.3.3,0,0,1-.2-.074.305.305,0,0,1-.032-.428c3.506-4.1,2.746-5.722,2.648-5.894a.3.3,0,0,1,.11-.415.3.3,0,0,1,.411.111,2.577,2.577,0,0,1,.088,1.912,12.486,12.486,0,0,1-2.8,4.681A.3.3,0,0,1,203.574,212Z" fill="#fcf8f0"/>
              </g>
            </g>
          </g>
          <g id="Group_94" data-name="Group 94">
            <g id="Group_93" data-name="Group 93">
              <g id="Group_92" data-name="Group 92">
                <path id="Path_35" data-name="Path 35" d="M207.509,213.894a.3.3,0,0,1-.194-.071.305.305,0,0,1-.037-.428c1.861-2.229,1.476-2.965,1.472-2.972a.3.3,0,0,1,.11-.415.3.3,0,0,1,.411.111c.187.326.412,1.337-1.533,3.666A.3.3,0,0,1,207.509,213.894Z" fill="#fcf8f0"/>
              </g>
            </g>
          </g>
        </g>
        <path id="Path_36" data-name="Path 36" d="M211.883,215.585a.3.3,0,0,1-.261-.152l-14.689-25.641a.3.3,0,0,1,.11-.415.3.3,0,0,1,.411.111l14.689,25.641a.3.3,0,0,1-.11.415A.3.3,0,0,1,211.883,215.585Z" fill="#fcf8f0"/>
      </g>
      <g id="Group_120" data-name="Group 120">
        <g id="Group_99" data-name="Group 99">
          <g id="Group_97" data-name="Group 97">
            <path id="Path_37" data-name="Path 37" d="M226.571,190.266a.616.616,0,0,1-.412-.158c-.084-.076-8.495-7.563-14.013-8.4a12.712,12.712,0,0,0-6.479.617,13.3,13.3,0,0,0-4.46,2.861,16.673,16.673,0,0,0-3.446,4.707.62.62,0,0,1-.82.318.628.628,0,0,1-.316-.825,17.622,17.622,0,0,1,3.694-5.076,14.55,14.55,0,0,1,4.884-3.146,13.926,13.926,0,0,1,7.127-.693c2.488.377,5.716,1.962,9.595,4.71a63.649,63.649,0,0,1,5.059,3.992.629.629,0,0,1,.051.884A.618.618,0,0,1,226.571,190.266Z" fill="#fcf8f0"/>
          </g>
          <g id="Group_98" data-name="Group 98">
            <path id="Path_38" data-name="Path 38" d="M210.017,198.988a13.433,13.433,0,0,1-4.813-.871,14.551,14.551,0,0,1-4.884-3.146,17.622,17.622,0,0,1-3.694-5.076.628.628,0,0,1,.316-.826.619.619,0,0,1,.819.318h0a16.672,16.672,0,0,0,3.446,4.707,13.3,13.3,0,0,0,4.46,2.861,12.711,12.711,0,0,0,6.479.617c5.522-.837,13.929-8.323,14.013-8.4a.618.618,0,0,1,.877.052.629.629,0,0,1-.051.884,63.657,63.657,0,0,1-5.059,3.992c-3.878,2.748-7.106,4.333-9.595,4.71A15.433,15.433,0,0,1,210.017,198.988Z" fill="#fcf8f0"/>
          </g>
        </g>
        <g id="Group_109" data-name="Group 109">
          <g id="Group_102" data-name="Group 102">
            <g id="Group_101" data-name="Group 101">
              <g id="Group_100" data-name="Group 100">
                <path id="Path_39" data-name="Path 39" d="M209.076,189.944a.3.3,0,0,1,0-.607c.357,0,3.569-.2,6.359-7.176a.3.3,0,0,1,.392-.168.3.3,0,0,1,.167.4C213.116,189.579,209.726,189.944,209.076,189.944Z" fill="#fcf8f0"/>
              </g>
            </g>
          </g>
          <g id="Group_105" data-name="Group 105">
            <g id="Group_104" data-name="Group 104">
              <g id="Group_103" data-name="Group 103">
                <path id="Path_40" data-name="Path 40" d="M215.315,189.944a.3.3,0,0,1,0-.607c.2,0,1.969-.148,3.741-5.258a.3.3,0,0,1,.384-.186.3.3,0,0,1,.185.387A12.49,12.49,0,0,1,217,189.065,2.531,2.531,0,0,1,215.315,189.944Z" fill="#fcf8f0"/>
              </g>
            </g>
          </g>
          <g id="Group_108" data-name="Group 108">
            <g id="Group_107" data-name="Group 107">
              <g id="Group_106" data-name="Group 106">
                <path id="Path_41" data-name="Path 41" d="M220.831,189.944a.3.3,0,0,1,0-.607c.008,0,.833-.032,1.818-2.771a.3.3,0,0,1,.386-.182.3.3,0,0,1,.181.389C222.185,189.635,221.2,189.944,220.831,189.944Z" fill="#fcf8f0"/>
              </g>
            </g>
          </g>
        </g>
        <g id="Group_119" data-name="Group 119">
          <g id="Group_112" data-name="Group 112">
            <g id="Group_111" data-name="Group 111">
              <g id="Group_110" data-name="Group 110">
                <path id="Path_42" data-name="Path 42" d="M215.714,197.31a.3.3,0,0,1-.279-.19c-2.79-6.975-6-7.176-6.359-7.176a.3.3,0,0,1,0-.607c.65,0,4.041.364,6.917,7.556a.3.3,0,0,1-.167.4A.3.3,0,0,1,215.714,197.31Z" fill="#fcf8f0"/>
              </g>
            </g>
          </g>
          <g id="Group_115" data-name="Group 115">
            <g id="Group_114" data-name="Group 114">
              <g id="Group_113" data-name="Group 113">
                <path id="Path_43" data-name="Path 43" d="M219.34,195.4a.3.3,0,0,1-.284-.2c-1.771-5.11-3.544-5.258-3.741-5.258a.3.3,0,0,1,0-.607,2.531,2.531,0,0,1,1.687.879A12.491,12.491,0,0,1,219.625,195a.3.3,0,0,1-.185.387A.3.3,0,0,1,219.34,195.4Z" fill="#fcf8f0"/>
              </g>
            </g>
          </g>
          <g id="Group_118" data-name="Group 118">
            <g id="Group_117" data-name="Group 117">
              <g id="Group_116" data-name="Group 116">
                <path id="Path_44" data-name="Path 44" d="M222.932,192.915a.3.3,0,0,1-.283-.2c-.985-2.739-1.81-2.771-1.818-2.771a.3.3,0,0,1,0-.607c.374,0,1.355.309,2.384,3.171a.3.3,0,0,1-.181.389A.3.3,0,0,1,222.932,192.915Z" fill="#fcf8f0"/>
              </g>
            </g>
          </g>
        </g>
        <path id="Path_45" data-name="Path 45" d="M226.572,189.944H197.193a.3.3,0,0,1,0-.607h29.379a.3.3,0,0,1,0,.607Z" fill="#fcf8f0"/>
      </g>
      <g id="Group_144" data-name="Group 144">
        <g id="Group_123" data-name="Group 123">
          <g id="Group_121" data-name="Group 121">
            <path id="Path_46" data-name="Path 46" d="M197.193,190.266a.618.618,0,0,1-.5-.257,17.682,17.682,0,0,1-2.515-5.763,14.789,14.789,0,0,1-.261-5.836,14.188,14.188,0,0,1,2.968-6.567,16.29,16.29,0,0,1,3.952-3.363,41.691,41.691,0,0,1,4.892-2.656,63.275,63.275,0,0,1,5.96-2.42.62.62,0,0,1,.785.4.627.627,0,0,1-.394.791c-.107.036-10.746,3.633-14.224,8.031a12.952,12.952,0,0,0-2.709,5.963,13.515,13.515,0,0,0,.229,5.324,16.727,16.727,0,0,0,2.322,5.361.63.63,0,0,1-.137.874A.615.615,0,0,1,197.193,190.266Z" fill="#fcf8f0"/>
          </g>
          <g id="Group_122" data-name="Group 122">
            <path id="Path_47" data-name="Path 47" d="M198.271,190.31c-.681,0-1.1-.043-1.144-.048a.626.626,0,0,1,.132-1.245,16.427,16.427,0,0,0,5.768-.655,13.273,13.273,0,0,0,4.689-2.462,12.9,12.9,0,0,0,3.769-5.346c2.042-5.238-.188-16.318-.211-16.43a.621.621,0,1,1,1.217-.253,64.533,64.533,0,0,1,.9,6.411,42.427,42.427,0,0,1,.164,5.6,16.492,16.492,0,0,1-.914,5.131,14.134,14.134,0,0,1-4.159,5.874,14.526,14.526,0,0,1-5.146,2.69A18.1,18.1,0,0,1,198.271,190.31Z" fill="#fcf8f0"/>
          </g>
        </g>
        <g id="Group_133" data-name="Group 133">
          <g id="Group_126" data-name="Group 126">
            <g id="Group_125" data-name="Group 125">
              <g id="Group_124" data-name="Group 124">
                <path id="Path_48" data-name="Path 48" d="M203.134,179.572a.3.3,0,0,1-.15-.041.3.3,0,0,1-.11-.415c.179-.312,1.611-3.215-2.987-9.138a.305.305,0,0,1,.052-.426.3.3,0,0,1,.423.052c4.742,6.107,3.36,9.248,3.034,9.815A.3.3,0,0,1,203.134,179.572Z" fill="#fcf8f0"/>
              </g>
            </g>
          </g>
          <g id="Group_129" data-name="Group 129">
            <g id="Group_128" data-name="Group 128">
              <g id="Group_127" data-name="Group 127">
                <path id="Path_49" data-name="Path 49" d="M206.254,174.127a.3.3,0,0,1-.15-.041.3.3,0,0,1-.11-.415c.1-.171.858-1.793-2.648-5.893a.305.305,0,0,1,.032-.428.3.3,0,0,1,.425.032,12.487,12.487,0,0,1,2.8,4.681,2.577,2.577,0,0,1-.088,1.912A.3.3,0,0,1,206.254,174.127Z" fill="#fcf8f0"/>
              </g>
            </g>
          </g>
          <g id="Group_132" data-name="Group 132">
            <g id="Group_131" data-name="Group 131">
              <g id="Group_130" data-name="Group 130">
                <path id="Path_50" data-name="Path 50" d="M209.011,169.313a.3.3,0,0,1-.15-.041.3.3,0,0,1-.11-.415c0-.007.389-.743-1.472-2.972a.305.305,0,0,1,.037-.428.3.3,0,0,1,.424.037c1.945,2.329,1.72,3.34,1.533,3.666A.3.3,0,0,1,209.011,169.313Z" fill="#fcf8f0"/>
              </g>
            </g>
          </g>
        </g>
        <g id="Group_143" data-name="Group 143">
          <g id="Group_136" data-name="Group 136">
            <g id="Group_135" data-name="Group 135">
              <g id="Group_134" data-name="Group 134">
                <path id="Path_51" data-name="Path 51" d="M203.134,179.572a.3.3,0,0,1-.15-.041.3.3,0,0,1-.11-.415c.325-.568,2.333-3.344,9.952-2.259a.3.3,0,0,1-.084.6c-7.388-1.052-9.167,1.65-9.346,1.962A.3.3,0,0,1,203.134,179.572Z" fill="#fcf8f0"/>
              </g>
            </g>
          </g>
          <g id="Group_139" data-name="Group 139">
            <g id="Group_138" data-name="Group 138">
              <g id="Group_137" data-name="Group 137">
                <path id="Path_52" data-name="Path 52" d="M206.254,174.127a.3.3,0,0,1-.15-.041.3.3,0,0,1-.11-.415,2.54,2.54,0,0,1,1.6-1.033,12.277,12.277,0,0,1,5.423.1.3.3,0,0,1-.112.6c-5.277-1.009-6.29.465-6.388.636A.3.3,0,0,1,206.254,174.127Z" fill="#fcf8f0"/>
              </g>
            </g>
          </g>
          <g id="Group_142" data-name="Group 142">
            <g id="Group_141" data-name="Group 141">
              <g id="Group_140" data-name="Group 140">
                <path id="Path_53" data-name="Path 53" d="M209.011,169.313a.3.3,0,0,1-.15-.041.3.3,0,0,1-.11-.415c.187-.326.943-1.028,3.917-.5a.3.3,0,0,1-.105.6c-2.847-.51-3.286.194-3.29.2A.3.3,0,0,1,209.011,169.313Z" fill="#fcf8f0"/>
              </g>
            </g>
          </g>
        </g>
        <path id="Path_54" data-name="Path 54" d="M197.193,189.944a.3.3,0,0,1-.15-.041.3.3,0,0,1-.11-.415l14.689-25.641a.3.3,0,0,1,.411-.111.3.3,0,0,1,.11.415l-14.689,25.641A.3.3,0,0,1,197.193,189.944Z" fill="#fcf8f0"/>
      </g>
      <g id="Group_149" data-name="Group 149">
        <g id="Group_148" data-name="Group 148">
          <g id="Group_147" data-name="Group 147">
            <g id="Group_145" data-name="Group 145">
              <path id="Path_55" data-name="Path 55" d="M197.193,168.473a.3.3,0,0,1-.275-.181.3.3,0,0,1,.153-.4h0a5.343,5.343,0,0,0,1.508-1.124,4.071,4.071,0,0,0,1.1-3.535c-.268-1.8-2.69-4.561-2.714-4.588a.305.305,0,0,1,.025-.429.3.3,0,0,1,.425.025c.1.118,2.565,2.926,2.86,4.9A4.714,4.714,0,0,1,199,167.2a5.847,5.847,0,0,1-1.686,1.245A.3.3,0,0,1,197.193,168.473Z" fill="#fcf8f0"/>
            </g>
            <g id="Group_146" data-name="Group 146">
              <path id="Path_56" data-name="Path 56" d="M197.193,168.473a.3.3,0,0,1-.122-.026,5.848,5.848,0,0,1-1.686-1.245,4.714,4.714,0,0,1-1.277-4.058c.295-1.976,2.755-4.783,2.86-4.9a.3.3,0,0,1,.425-.025.305.305,0,0,1,.025.429c-.024.028-2.446,2.791-2.714,4.588a4.072,4.072,0,0,0,1.118,3.55,5.29,5.29,0,0,0,1.493,1.108.3.3,0,0,1,.153.4A.3.3,0,0,1,197.193,168.473Z" fill="#fcf8f0"/>
            </g>
          </g>
          <path id="Path_57" data-name="Path 57" d="M197.193,168.473a.3.3,0,0,1-.3-.3v-9.726a.3.3,0,1,1,.6,0v9.726A.3.3,0,0,1,197.193,168.473Z" fill="#fcf8f0"/>
        </g>
        <ellipse id="Ellipse_1" data-name="Ellipse 1" cx="0.746" cy="0.752" rx="0.746" ry="0.752" transform="matrix(0.259, -0.966, 0.966, 0.259, 189.476, 163.706)" fill="#fcf8f0"/>
        <ellipse id="Ellipse_2" data-name="Ellipse 2" cx="0.746" cy="0.752" rx="0.746" ry="0.752" transform="matrix(0.259, -0.966, 0.966, 0.259, 176.938, 171.001)" fill="#fcf8f0"/>
      </g>
      <g id="Group_154" data-name="Group 154">
        <g id="Group_153" data-name="Group 153">
          <g id="Group_152" data-name="Group 152">
            <g id="Group_150" data-name="Group 150">
              <path id="Path_58" data-name="Path 58" d="M178.743,179.209l-.032,0a.3.3,0,0,1-.267-.334,5.422,5.422,0,0,0-.212-1.878,4.039,4.039,0,0,0-2.486-2.73c-1.679-.665-5.264.067-5.3.075a.3.3,0,0,1-.122-.595c.154-.032,3.8-.775,5.642-.045a4.678,4.678,0,0,1,2.849,3.144,5.942,5.942,0,0,1,.227,2.094A.3.3,0,0,1,178.743,179.209Z" fill="#fcf8f0"/>
            </g>
            <g id="Group_151" data-name="Group 151">
              <path id="Path_59" data-name="Path 59" d="M175.813,180.146a4.613,4.613,0,0,1-2.932-1.062c-1.551-1.245-2.733-4.8-2.782-4.947a.3.3,0,0,1,.191-.384.3.3,0,0,1,.381.192c.012.035,1.175,3.53,2.586,4.663a4,4,0,0,0,3.609.8,5.268,5.268,0,0,0,1.7-.749.3.3,0,0,1,.421.066.305.305,0,0,1-.066.424,5.83,5.83,0,0,1-1.913.849A5.048,5.048,0,0,1,175.813,180.146Z" fill="#fcf8f0"/>
            </g>
          </g>
          <path id="Path_60" data-name="Path 60" d="M178.742,179.209a.3.3,0,0,1-.15-.041l-8.358-4.863a.3.3,0,0,1-.11-.415.3.3,0,0,1,.411-.111l8.357,4.863a.3.3,0,0,1,.11.415A.3.3,0,0,1,178.742,179.209Z" fill="#fcf8f0"/>
        </g>
        <ellipse id="Ellipse_3" data-name="Ellipse 3" cx="0.746" cy="0.752" rx="0.746" ry="0.752" transform="matrix(0.16, -0.987, 0.987, 0.16, 170.193, 182.966)" fill="#fcf8f0"/>
        <ellipse id="Ellipse_4" data-name="Ellipse 4" cx="0.746" cy="0.752" rx="0.746" ry="0.752" transform="matrix(0.16, -0.987, 0.987, 0.16, 170.193, 197.557)" fill="#fcf8f0"/>
      </g>
      <g id="Group_165" data-name="Group 165">
        <g id="Group_159" data-name="Group 159">
          <g id="Group_158" data-name="Group 158">
            <g id="Group_157" data-name="Group 157">
              <g id="Group_155" data-name="Group 155">
                <path id="Path_61" data-name="Path 61" d="M170.385,205.542a.3.3,0,0,1-.095-.016.3.3,0,0,1-.191-.384c.05-.151,1.232-3.7,2.782-4.947a4.627,4.627,0,0,1,4.126-.915,5.83,5.83,0,0,1,1.913.849.305.305,0,0,1,.066.424.3.3,0,0,1-.42.067h0a5.322,5.322,0,0,0-1.72-.754,4,4,0,0,0-3.589.8,7.9,7.9,0,0,0-1.818,2.744,20.533,20.533,0,0,0-.767,1.919A.3.3,0,0,1,170.385,205.542Z" fill="#fcf8f0"/>
              </g>
              <g id="Group_156" data-name="Group 156">
                <path id="Path_62" data-name="Path 62" d="M173.763,205.9a19.188,19.188,0,0,1-3.439-.365.3.3,0,0,1,.122-.595c.036.007,3.621.739,5.3.075a4.04,4.04,0,0,0,2.491-2.75,5.367,5.367,0,0,0,.206-1.857.3.3,0,1,1,.6-.065,5.942,5.942,0,0,1-.227,2.094,4.678,4.678,0,0,1-2.849,3.144A6.261,6.261,0,0,1,173.763,205.9Z" fill="#fcf8f0"/>
              </g>
            </g>
            <path id="Path_63" data-name="Path 63" d="M170.385,205.542a.3.3,0,0,1-.261-.152.3.3,0,0,1,.11-.415l8.358-4.863a.3.3,0,0,1,.411.111.3.3,0,0,1-.11.415l-8.357,4.863A.3.3,0,0,1,170.385,205.542Z" fill="#fcf8f0"/>
          </g>
          <ellipse id="Ellipse_5" data-name="Ellipse 5" cx="0.746" cy="0.752" rx="0.746" ry="0.752" transform="translate(177.106 208.059)" fill="#fcf8f0"/>
          <ellipse id="Ellipse_6" data-name="Ellipse 6" cx="0.746" cy="0.752" rx="0.746" ry="0.752" transform="translate(189.644 215.354)" fill="#fcf8f0"/>
        </g>
        <g id="Group_164" data-name="Group 164">
          <g id="Group_163" data-name="Group 163">
            <g id="Group_162" data-name="Group 162">
              <g id="Group_160" data-name="Group 160">
                <path id="Path_64" data-name="Path 64" d="M197.193,221.14a.3.3,0,0,1-.225-.1c-.1-.118-2.565-2.926-2.86-4.9a4.714,4.714,0,0,1,1.277-4.058,5.849,5.849,0,0,1,1.686-1.245.3.3,0,0,1,.4.155.3.3,0,0,1-.153.4h0a5.34,5.34,0,0,0-1.508,1.124,4.071,4.071,0,0,0-1.1,3.535c.268,1.8,2.69,4.561,2.714,4.589a.305.305,0,0,1-.025.429A.3.3,0,0,1,197.193,221.14Z" fill="#fcf8f0"/>
              </g>
              <g id="Group_161" data-name="Group 161">
                <path id="Path_65" data-name="Path 65" d="M197.193,221.14a.3.3,0,0,1-.2-.077.305.305,0,0,1-.025-.429c.024-.028,2.446-2.791,2.714-4.589a4.071,4.071,0,0,0-1.1-3.535,5.34,5.34,0,0,0-1.508-1.124.3.3,0,0,1-.153-.4.3.3,0,0,1,.4-.154A5.848,5.848,0,0,1,199,212.078a4.714,4.714,0,0,1,1.277,4.058c-.295,1.976-2.755,4.783-2.86,4.9A.3.3,0,0,1,197.193,221.14Z" fill="#fcf8f0"/>
              </g>
            </g>
            <path id="Path_66" data-name="Path 66" d="M197.193,221.14a.3.3,0,0,1-.3-.3v-9.726a.3.3,0,1,1,.6,0v9.726A.3.3,0,0,1,197.193,221.14Z" fill="#fcf8f0"/>
          </g>
          <ellipse id="Ellipse_7" data-name="Ellipse 7" cx="0.746" cy="0.752" rx="0.746" ry="0.752" transform="matrix(0.259, -0.966, 0.966, 0.259, 203.082, 216.638)" fill="#fcf8f0"/>
          <ellipse id="Ellipse_8" data-name="Ellipse 8" cx="0.746" cy="0.752" rx="0.746" ry="0.752" transform="matrix(0.259, -0.966, 0.966, 0.259, 215.62, 209.342)" fill="#fcf8f0"/>
        </g>
      </g>
      <g id="Group_176" data-name="Group 176">
        <g id="Group_170" data-name="Group 170">
          <g id="Group_169" data-name="Group 169">
            <g id="Group_168" data-name="Group 168">
              <g id="Group_166" data-name="Group 166">
                <path id="Path_67" data-name="Path 67" d="M220.622,205.9a6.261,6.261,0,0,1-2.2-.32,4.678,4.678,0,0,1-2.849-3.144,5.942,5.942,0,0,1-.227-2.094.3.3,0,1,1,.6.064,5.423,5.423,0,0,0,.212,1.878,4.039,4.039,0,0,0,2.486,2.73c1.679.665,5.264-.067,5.3-.075a.3.3,0,0,1,.122.595A19.194,19.194,0,0,1,220.622,205.9Z" fill="#fcf8f0"/>
              </g>
              <g id="Group_167" data-name="Group 167">
                <path id="Path_68" data-name="Path 68" d="M224,205.542a.3.3,0,0,1-.286-.208c-.012-.035-1.175-3.53-2.586-4.663a4,4,0,0,0-3.589-.8,5.322,5.322,0,0,0-1.72.754.3.3,0,0,1-.421-.067.3.3,0,0,1,.066-.424,5.831,5.831,0,0,1,1.913-.849,4.627,4.627,0,0,1,4.126.915c1.551,1.245,2.733,4.8,2.782,4.947a.3.3,0,0,1-.191.384A.3.3,0,0,1,224,205.542Z" fill="#fcf8f0"/>
              </g>
            </g>
            <path id="Path_69" data-name="Path 69" d="M224,205.542a.3.3,0,0,1-.15-.041l-8.358-4.863a.3.3,0,0,1-.11-.415.3.3,0,0,1,.411-.111l8.357,4.863a.3.3,0,0,1,.11.415A.3.3,0,0,1,224,205.542Z" fill="#fcf8f0"/>
          </g>
          <ellipse id="Ellipse_9" data-name="Ellipse 9" cx="0.746" cy="0.752" rx="0.746" ry="0.752" transform="translate(222.481 197.557) rotate(-80.783)" fill="#fcf8f0"/>
          <ellipse id="Ellipse_10" data-name="Ellipse 10" cx="0.746" cy="0.752" rx="0.746" ry="0.752" transform="translate(222.481 182.966) rotate(-80.783)" fill="#fcf8f0"/>
        </g>
        <g id="Group_175" data-name="Group 175">
          <g id="Group_174" data-name="Group 174">
            <g id="Group_173" data-name="Group 173">
              <g id="Group_171" data-name="Group 171">
                <path id="Path_70" data-name="Path 70" d="M218.572,180.146a5.048,5.048,0,0,1-1.194-.147,5.831,5.831,0,0,1-1.913-.849.305.305,0,0,1-.066-.424.3.3,0,0,1,.421-.067,5.322,5.322,0,0,0,1.719.754,4,4,0,0,0,3.589-.8,7.9,7.9,0,0,0,1.818-2.744,20.521,20.521,0,0,0,.767-1.919.3.3,0,0,1,.381-.193.3.3,0,0,1,.191.384c-.05.151-1.232,3.7-2.782,4.947A4.613,4.613,0,0,1,218.572,180.146Z" fill="#fcf8f0"/>
              </g>
              <g id="Group_172" data-name="Group 172">
                <path id="Path_71" data-name="Path 71" d="M215.643,179.209a.3.3,0,0,1-.3-.271,5.942,5.942,0,0,1,.227-2.094,4.678,4.678,0,0,1,2.849-3.144c1.845-.731,5.488.013,5.642.045a.3.3,0,0,1-.122.595c-.036-.007-3.621-.739-5.3-.075a4.04,4.04,0,0,0-2.491,2.75,5.367,5.367,0,0,0-.206,1.857.3.3,0,0,1-.267.334Z" fill="#fcf8f0"/>
              </g>
            </g>
            <path id="Path_72" data-name="Path 72" d="M215.643,179.209a.3.3,0,0,1-.261-.152.3.3,0,0,1,.11-.415l8.358-4.863a.3.3,0,0,1,.411.111.3.3,0,0,1-.11.415l-8.357,4.863A.3.3,0,0,1,215.643,179.209Z" fill="#fcf8f0"/>
          </g>
          <ellipse id="Ellipse_11" data-name="Ellipse 11" cx="0.746" cy="0.752" rx="0.746" ry="0.752" transform="translate(215.788 169.718)" fill="#fcf8f0"/>
          <path id="Path_73" data-name="Path 73" d="M204.642,163.55a.743.743,0,0,1-1.019.275.755.755,0,0,1-.273-1.027.743.743,0,0,1,1.019-.275A.755.755,0,0,1,204.642,163.55Z" fill="#fcf8f0"/>
        </g>
      </g>
    </g>
  </g>
</svg>
